<mxfile host="app.diagrams.net" modified="2023-09-14T09:34:45.866Z" agent="Mozilla/5.0 (Macintosh; Intel Mac OS X 10_15_7) AppleWebKit/537.36 (KHTML, like Gecko) Chrome/116.0.0.0 Safari/537.36" etag="AoD_wc98NOxPJ3j2aPLD" version="21.7.5" type="github">
  <diagram name="第 1 页" id="FwGZYvPx543RuP_go60c">
    <mxGraphModel dx="2879" dy="1308" grid="1" gridSize="10" guides="1" tooltips="1" connect="1" arrows="1" fold="1" page="1" pageScale="1" pageWidth="827" pageHeight="1169" math="0" shadow="0">
      <root>
        <mxCell id="0" />
        <mxCell id="1" parent="0" />
        <mxCell id="jKuNHAU3vLXtjjAw8VPT-43" value="" style="rounded=0;whiteSpace=wrap;html=1;strokeColor=default;dashed=1;dashPattern=12 12;" vertex="1" parent="1">
          <mxGeometry x="2090" y="695" width="350" height="166" as="geometry" />
        </mxCell>
        <mxCell id="jKuNHAU3vLXtjjAw8VPT-44" value="运营域" style="text;strokeColor=none;align=center;fillColor=none;html=1;verticalAlign=middle;whiteSpace=wrap;rounded=0;fontSize=19;fontStyle=1" vertex="1" parent="1">
          <mxGeometry x="2102" y="725" width="60" height="30" as="geometry" />
        </mxCell>
        <mxCell id="jKuNHAU3vLXtjjAw8VPT-40" value="" style="rounded=0;whiteSpace=wrap;html=1;strokeColor=default;dashed=1;dashPattern=12 12;" vertex="1" parent="1">
          <mxGeometry x="1904" y="694" width="164" height="166" as="geometry" />
        </mxCell>
        <mxCell id="jKuNHAU3vLXtjjAw8VPT-41" value="poi域" style="text;strokeColor=none;align=center;fillColor=none;html=1;verticalAlign=middle;whiteSpace=wrap;rounded=0;fontSize=19;fontStyle=1" vertex="1" parent="1">
          <mxGeometry x="1916" y="724" width="60" height="30" as="geometry" />
        </mxCell>
        <mxCell id="jKuNHAU3vLXtjjAw8VPT-38" value="" style="rounded=0;whiteSpace=wrap;html=1;strokeColor=default;dashed=1;dashPattern=12 12;" vertex="1" parent="1">
          <mxGeometry x="1709" y="695" width="164" height="166" as="geometry" />
        </mxCell>
        <mxCell id="jKuNHAU3vLXtjjAw8VPT-39" value="营销域" style="text;strokeColor=none;align=center;fillColor=none;html=1;verticalAlign=middle;whiteSpace=wrap;rounded=0;fontSize=19;fontStyle=1" vertex="1" parent="1">
          <mxGeometry x="1721" y="725" width="60" height="30" as="geometry" />
        </mxCell>
        <mxCell id="jKuNHAU3vLXtjjAw8VPT-36" value="" style="rounded=0;whiteSpace=wrap;html=1;strokeColor=default;dashed=1;dashPattern=12 12;" vertex="1" parent="1">
          <mxGeometry x="956" y="695" width="714" height="165" as="geometry" />
        </mxCell>
        <mxCell id="jKuNHAU3vLXtjjAw8VPT-37" value="订单域" style="text;strokeColor=none;align=center;fillColor=none;html=1;verticalAlign=middle;whiteSpace=wrap;rounded=0;fontSize=19;fontStyle=1" vertex="1" parent="1">
          <mxGeometry x="968" y="725" width="60" height="30" as="geometry" />
        </mxCell>
        <mxCell id="jKuNHAU3vLXtjjAw8VPT-34" value="" style="rounded=0;whiteSpace=wrap;html=1;strokeColor=default;dashed=1;dashPattern=12 12;" vertex="1" parent="1">
          <mxGeometry x="-30" y="694" width="720" height="166" as="geometry" />
        </mxCell>
        <mxCell id="jKuNHAU3vLXtjjAw8VPT-35" value="商品域" style="text;strokeColor=none;align=center;fillColor=none;html=1;verticalAlign=middle;whiteSpace=wrap;rounded=0;fontSize=19;fontStyle=1" vertex="1" parent="1">
          <mxGeometry x="-18" y="724" width="60" height="30" as="geometry" />
        </mxCell>
        <mxCell id="jKuNHAU3vLXtjjAw8VPT-31" value="" style="rounded=0;whiteSpace=wrap;html=1;strokeColor=default;dashed=1;dashPattern=12 12;" vertex="1" parent="1">
          <mxGeometry x="740" y="695" width="164" height="166" as="geometry" />
        </mxCell>
        <mxCell id="jKuNHAU3vLXtjjAw8VPT-54" style="rounded=0;orthogonalLoop=1;jettySize=auto;html=1;entryX=0.5;entryY=0;entryDx=0;entryDy=0;" edge="1" parent="1" source="ANIIl0F2oqM_aH0Y1HIA-1" target="ANIIl0F2oqM_aH0Y1HIA-3">
          <mxGeometry relative="1" as="geometry" />
        </mxCell>
        <mxCell id="jKuNHAU3vLXtjjAw8VPT-55" style="rounded=0;orthogonalLoop=1;jettySize=auto;html=1;entryX=0.5;entryY=0;entryDx=0;entryDy=0;" edge="1" parent="1" source="ANIIl0F2oqM_aH0Y1HIA-1" target="ANIIl0F2oqM_aH0Y1HIA-4">
          <mxGeometry relative="1" as="geometry" />
        </mxCell>
        <mxCell id="jKuNHAU3vLXtjjAw8VPT-56" style="rounded=0;orthogonalLoop=1;jettySize=auto;html=1;entryX=0.5;entryY=0;entryDx=0;entryDy=0;" edge="1" parent="1" source="ANIIl0F2oqM_aH0Y1HIA-1" target="ANIIl0F2oqM_aH0Y1HIA-6">
          <mxGeometry relative="1" as="geometry" />
        </mxCell>
        <mxCell id="jKuNHAU3vLXtjjAw8VPT-57" style="rounded=0;orthogonalLoop=1;jettySize=auto;html=1;entryX=0.5;entryY=0;entryDx=0;entryDy=0;" edge="1" parent="1" source="ANIIl0F2oqM_aH0Y1HIA-1" target="jKuNHAU3vLXtjjAw8VPT-4">
          <mxGeometry relative="1" as="geometry" />
        </mxCell>
        <mxCell id="jKuNHAU3vLXtjjAw8VPT-58" style="rounded=0;orthogonalLoop=1;jettySize=auto;html=1;entryX=0.5;entryY=0;entryDx=0;entryDy=0;" edge="1" parent="1" source="ANIIl0F2oqM_aH0Y1HIA-1" target="ANIIl0F2oqM_aH0Y1HIA-2">
          <mxGeometry relative="1" as="geometry" />
        </mxCell>
        <mxCell id="jKuNHAU3vLXtjjAw8VPT-59" style="rounded=0;orthogonalLoop=1;jettySize=auto;html=1;entryX=0.5;entryY=0;entryDx=0;entryDy=0;" edge="1" parent="1" source="ANIIl0F2oqM_aH0Y1HIA-1" target="ANIIl0F2oqM_aH0Y1HIA-5">
          <mxGeometry relative="1" as="geometry" />
        </mxCell>
        <mxCell id="jKuNHAU3vLXtjjAw8VPT-60" style="rounded=0;orthogonalLoop=1;jettySize=auto;html=1;entryX=0.5;entryY=0;entryDx=0;entryDy=0;" edge="1" parent="1" source="ANIIl0F2oqM_aH0Y1HIA-1" target="ANIIl0F2oqM_aH0Y1HIA-7">
          <mxGeometry relative="1" as="geometry" />
        </mxCell>
        <mxCell id="jKuNHAU3vLXtjjAw8VPT-61" style="rounded=0;orthogonalLoop=1;jettySize=auto;html=1;entryX=0.5;entryY=0;entryDx=0;entryDy=0;" edge="1" parent="1" source="ANIIl0F2oqM_aH0Y1HIA-1" target="jKuNHAU3vLXtjjAw8VPT-1">
          <mxGeometry relative="1" as="geometry" />
        </mxCell>
        <mxCell id="jKuNHAU3vLXtjjAw8VPT-62" style="rounded=0;orthogonalLoop=1;jettySize=auto;html=1;entryX=0.5;entryY=0;entryDx=0;entryDy=0;" edge="1" parent="1" source="ANIIl0F2oqM_aH0Y1HIA-1" target="jKuNHAU3vLXtjjAw8VPT-8">
          <mxGeometry relative="1" as="geometry" />
        </mxCell>
        <mxCell id="jKuNHAU3vLXtjjAw8VPT-63" style="rounded=0;orthogonalLoop=1;jettySize=auto;html=1;" edge="1" parent="1" source="ANIIl0F2oqM_aH0Y1HIA-1" target="jKuNHAU3vLXtjjAw8VPT-3">
          <mxGeometry relative="1" as="geometry" />
        </mxCell>
        <mxCell id="jKuNHAU3vLXtjjAw8VPT-64" style="rounded=0;orthogonalLoop=1;jettySize=auto;html=1;entryX=0.5;entryY=0;entryDx=0;entryDy=0;" edge="1" parent="1" source="ANIIl0F2oqM_aH0Y1HIA-1" target="jKuNHAU3vLXtjjAw8VPT-2">
          <mxGeometry relative="1" as="geometry">
            <mxPoint x="1910" y="500" as="targetPoint" />
          </mxGeometry>
        </mxCell>
        <mxCell id="jKuNHAU3vLXtjjAw8VPT-65" style="rounded=0;orthogonalLoop=1;jettySize=auto;html=1;entryX=0.5;entryY=0;entryDx=0;entryDy=0;" edge="1" parent="1" source="ANIIl0F2oqM_aH0Y1HIA-1" target="jKuNHAU3vLXtjjAw8VPT-5">
          <mxGeometry relative="1" as="geometry" />
        </mxCell>
        <mxCell id="jKuNHAU3vLXtjjAw8VPT-66" style="rounded=0;orthogonalLoop=1;jettySize=auto;html=1;entryX=0.5;entryY=0;entryDx=0;entryDy=0;" edge="1" parent="1" source="ANIIl0F2oqM_aH0Y1HIA-1" target="jKuNHAU3vLXtjjAw8VPT-6">
          <mxGeometry relative="1" as="geometry" />
        </mxCell>
        <mxCell id="jKuNHAU3vLXtjjAw8VPT-67" style="rounded=0;orthogonalLoop=1;jettySize=auto;html=1;entryX=0.5;entryY=0;entryDx=0;entryDy=0;" edge="1" parent="1" source="ANIIl0F2oqM_aH0Y1HIA-1" target="jKuNHAU3vLXtjjAw8VPT-7">
          <mxGeometry relative="1" as="geometry" />
        </mxCell>
        <mxCell id="jKuNHAU3vLXtjjAw8VPT-68" style="rounded=0;orthogonalLoop=1;jettySize=auto;html=1;" edge="1" parent="1" source="ANIIl0F2oqM_aH0Y1HIA-1">
          <mxGeometry relative="1" as="geometry">
            <mxPoint x="2740" y="530" as="targetPoint" />
          </mxGeometry>
        </mxCell>
        <mxCell id="ANIIl0F2oqM_aH0Y1HIA-1" value="&lt;font style=&quot;font-size: 18px;&quot;&gt;填单页process&lt;/font&gt;" style="rounded=0;whiteSpace=wrap;html=1;fontSize=18;fontStyle=1" parent="1" vertex="1">
          <mxGeometry x="1253" y="260" width="120" height="60" as="geometry" />
        </mxCell>
        <mxCell id="jKuNHAU3vLXtjjAw8VPT-73" style="edgeStyle=orthogonalEdgeStyle;rounded=0;orthogonalLoop=1;jettySize=auto;html=1;entryX=0.5;entryY=0;entryDx=0;entryDy=0;" edge="1" parent="1" source="ANIIl0F2oqM_aH0Y1HIA-2" target="jKuNHAU3vLXtjjAw8VPT-16">
          <mxGeometry relative="1" as="geometry" />
        </mxCell>
        <mxCell id="ANIIl0F2oqM_aH0Y1HIA-2" value="&lt;font style=&quot;font-size: 18px;&quot;&gt;用户信息node&lt;/font&gt;" style="rounded=0;whiteSpace=wrap;html=1;fontSize=18;fontStyle=1" parent="1" vertex="1">
          <mxGeometry x="762" y="525" width="120" height="60" as="geometry" />
        </mxCell>
        <mxCell id="jKuNHAU3vLXtjjAw8VPT-69" style="edgeStyle=orthogonalEdgeStyle;rounded=0;orthogonalLoop=1;jettySize=auto;html=1;entryX=0.5;entryY=0;entryDx=0;entryDy=0;" edge="1" parent="1" source="ANIIl0F2oqM_aH0Y1HIA-3" target="jKuNHAU3vLXtjjAw8VPT-17">
          <mxGeometry relative="1" as="geometry" />
        </mxCell>
        <mxCell id="ANIIl0F2oqM_aH0Y1HIA-3" value="&lt;font style=&quot;font-size: 18px;&quot;&gt;商品详情node&lt;/font&gt;" style="rounded=0;whiteSpace=wrap;html=1;fontSize=18;fontStyle=1" parent="1" vertex="1">
          <mxGeometry x="-20" y="524" width="120" height="60" as="geometry" />
        </mxCell>
        <mxCell id="jKuNHAU3vLXtjjAw8VPT-70" style="edgeStyle=orthogonalEdgeStyle;rounded=0;orthogonalLoop=1;jettySize=auto;html=1;entryX=0.5;entryY=0;entryDx=0;entryDy=0;" edge="1" parent="1" source="ANIIl0F2oqM_aH0Y1HIA-4" target="jKuNHAU3vLXtjjAw8VPT-18">
          <mxGeometry relative="1" as="geometry" />
        </mxCell>
        <mxCell id="ANIIl0F2oqM_aH0Y1HIA-4" value="&lt;font style=&quot;font-size: 18px;&quot;&gt;搭售node&lt;/font&gt;" style="rounded=0;whiteSpace=wrap;html=1;fontSize=18;fontStyle=1" parent="1" vertex="1">
          <mxGeometry x="170" y="524" width="120" height="60" as="geometry" />
        </mxCell>
        <mxCell id="jKuNHAU3vLXtjjAw8VPT-74" style="edgeStyle=orthogonalEdgeStyle;rounded=0;orthogonalLoop=1;jettySize=auto;html=1;entryX=0.5;entryY=0;entryDx=0;entryDy=0;" edge="1" parent="1" source="ANIIl0F2oqM_aH0Y1HIA-5" target="jKuNHAU3vLXtjjAw8VPT-19">
          <mxGeometry relative="1" as="geometry" />
        </mxCell>
        <mxCell id="ANIIl0F2oqM_aH0Y1HIA-5" value="&lt;font style=&quot;font-size: 18px;&quot;&gt;算价node&lt;/font&gt;" style="rounded=0;whiteSpace=wrap;html=1;fontSize=18;fontStyle=1" parent="1" vertex="1">
          <mxGeometry x="970" y="525" width="120" height="60" as="geometry" />
        </mxCell>
        <mxCell id="jKuNHAU3vLXtjjAw8VPT-71" style="edgeStyle=orthogonalEdgeStyle;rounded=0;orthogonalLoop=1;jettySize=auto;html=1;entryX=0.5;entryY=0;entryDx=0;entryDy=0;" edge="1" parent="1" source="ANIIl0F2oqM_aH0Y1HIA-6" target="jKuNHAU3vLXtjjAw8VPT-20">
          <mxGeometry relative="1" as="geometry" />
        </mxCell>
        <mxCell id="ANIIl0F2oqM_aH0Y1HIA-6" value="&lt;font style=&quot;font-size: 18px;&quot;&gt;价格日历node&lt;/font&gt;" style="rounded=0;whiteSpace=wrap;html=1;fontSize=18;fontStyle=1" parent="1" vertex="1">
          <mxGeometry x="360" y="524" width="120" height="60" as="geometry" />
        </mxCell>
        <mxCell id="jKuNHAU3vLXtjjAw8VPT-75" style="edgeStyle=orthogonalEdgeStyle;rounded=0;orthogonalLoop=1;jettySize=auto;html=1;entryX=0.5;entryY=0;entryDx=0;entryDy=0;" edge="1" parent="1" source="ANIIl0F2oqM_aH0Y1HIA-7" target="jKuNHAU3vLXtjjAw8VPT-21">
          <mxGeometry relative="1" as="geometry" />
        </mxCell>
        <mxCell id="ANIIl0F2oqM_aH0Y1HIA-7" value="&lt;font style=&quot;font-size: 18px;&quot;&gt;合同node&lt;/font&gt;" style="rounded=0;whiteSpace=wrap;html=1;fontSize=18;fontStyle=1" parent="1" vertex="1">
          <mxGeometry x="1160" y="525" width="120" height="60" as="geometry" />
        </mxCell>
        <mxCell id="jKuNHAU3vLXtjjAw8VPT-76" style="edgeStyle=orthogonalEdgeStyle;rounded=0;orthogonalLoop=1;jettySize=auto;html=1;entryX=0.5;entryY=0;entryDx=0;entryDy=0;" edge="1" parent="1" source="jKuNHAU3vLXtjjAw8VPT-1" target="jKuNHAU3vLXtjjAw8VPT-22">
          <mxGeometry relative="1" as="geometry" />
        </mxCell>
        <mxCell id="jKuNHAU3vLXtjjAw8VPT-1" value="&lt;font style=&quot;font-size: 18px;&quot;&gt;订单信息node&lt;/font&gt;" style="rounded=0;whiteSpace=wrap;html=1;fontSize=18;fontStyle=1" vertex="1" parent="1">
          <mxGeometry x="1350" y="525" width="120" height="60" as="geometry" />
        </mxCell>
        <mxCell id="jKuNHAU3vLXtjjAw8VPT-79" style="edgeStyle=orthogonalEdgeStyle;rounded=0;orthogonalLoop=1;jettySize=auto;html=1;" edge="1" parent="1" source="jKuNHAU3vLXtjjAw8VPT-2" target="jKuNHAU3vLXtjjAw8VPT-23">
          <mxGeometry relative="1" as="geometry" />
        </mxCell>
        <mxCell id="jKuNHAU3vLXtjjAw8VPT-2" value="&lt;font style=&quot;font-size: 18px;&quot;&gt;poi信息node&lt;/font&gt;" style="rounded=0;whiteSpace=wrap;html=1;fontSize=18;fontStyle=1" vertex="1" parent="1">
          <mxGeometry x="1920" y="525" width="120" height="60" as="geometry" />
        </mxCell>
        <mxCell id="jKuNHAU3vLXtjjAw8VPT-78" style="edgeStyle=orthogonalEdgeStyle;rounded=0;orthogonalLoop=1;jettySize=auto;html=1;entryX=0.5;entryY=0;entryDx=0;entryDy=0;" edge="1" parent="1" source="jKuNHAU3vLXtjjAw8VPT-3" target="jKuNHAU3vLXtjjAw8VPT-24">
          <mxGeometry relative="1" as="geometry" />
        </mxCell>
        <mxCell id="jKuNHAU3vLXtjjAw8VPT-3" value="&lt;font style=&quot;font-size: 18px;&quot;&gt;营销投放node&lt;/font&gt;" style="rounded=0;whiteSpace=wrap;html=1;fontSize=18;fontStyle=1" vertex="1" parent="1">
          <mxGeometry x="1730" y="525" width="120" height="60" as="geometry" />
        </mxCell>
        <mxCell id="jKuNHAU3vLXtjjAw8VPT-72" style="edgeStyle=orthogonalEdgeStyle;rounded=0;orthogonalLoop=1;jettySize=auto;html=1;entryX=0.5;entryY=0;entryDx=0;entryDy=0;" edge="1" parent="1" source="jKuNHAU3vLXtjjAw8VPT-4" target="jKuNHAU3vLXtjjAw8VPT-25">
          <mxGeometry relative="1" as="geometry" />
        </mxCell>
        <mxCell id="jKuNHAU3vLXtjjAw8VPT-4" value="&lt;font style=&quot;font-size: 18px;&quot;&gt;商品推荐node&lt;/font&gt;" style="rounded=0;whiteSpace=wrap;html=1;fontSize=18;fontStyle=1" vertex="1" parent="1">
          <mxGeometry x="550" y="524" width="120" height="60" as="geometry" />
        </mxCell>
        <mxCell id="jKuNHAU3vLXtjjAw8VPT-80" style="edgeStyle=orthogonalEdgeStyle;rounded=0;orthogonalLoop=1;jettySize=auto;html=1;" edge="1" parent="1" source="jKuNHAU3vLXtjjAw8VPT-5" target="jKuNHAU3vLXtjjAw8VPT-26">
          <mxGeometry relative="1" as="geometry" />
        </mxCell>
        <mxCell id="jKuNHAU3vLXtjjAw8VPT-5" value="&lt;font style=&quot;font-size: 18px;&quot;&gt;通用物料node&lt;/font&gt;" style="rounded=0;whiteSpace=wrap;html=1;fontSize=18;fontStyle=1" vertex="1" parent="1">
          <mxGeometry x="2110" y="525" width="120" height="60" as="geometry" />
        </mxCell>
        <mxCell id="jKuNHAU3vLXtjjAw8VPT-81" style="edgeStyle=orthogonalEdgeStyle;rounded=0;orthogonalLoop=1;jettySize=auto;html=1;entryX=0.5;entryY=0;entryDx=0;entryDy=0;" edge="1" parent="1" source="jKuNHAU3vLXtjjAw8VPT-6" target="jKuNHAU3vLXtjjAw8VPT-27">
          <mxGeometry relative="1" as="geometry" />
        </mxCell>
        <mxCell id="jKuNHAU3vLXtjjAw8VPT-6" value="&lt;font style=&quot;font-size: 18px;&quot;&gt;物料素材node&lt;/font&gt;" style="rounded=0;whiteSpace=wrap;html=1;fontSize=18;fontStyle=1" vertex="1" parent="1">
          <mxGeometry x="2300" y="525" width="120" height="60" as="geometry" />
        </mxCell>
        <mxCell id="jKuNHAU3vLXtjjAw8VPT-82" style="edgeStyle=orthogonalEdgeStyle;rounded=0;orthogonalLoop=1;jettySize=auto;html=1;entryX=0.5;entryY=0;entryDx=0;entryDy=0;" edge="1" parent="1" source="jKuNHAU3vLXtjjAw8VPT-7" target="jKuNHAU3vLXtjjAw8VPT-28">
          <mxGeometry relative="1" as="geometry" />
        </mxCell>
        <mxCell id="jKuNHAU3vLXtjjAw8VPT-7" value="&lt;font style=&quot;font-size: 18px;&quot;&gt;meta信息node&lt;/font&gt;" style="rounded=0;whiteSpace=wrap;html=1;fontSize=18;fontStyle=1" vertex="1" parent="1">
          <mxGeometry x="2490" y="525" width="120" height="60" as="geometry" />
        </mxCell>
        <mxCell id="jKuNHAU3vLXtjjAw8VPT-77" style="edgeStyle=orthogonalEdgeStyle;rounded=0;orthogonalLoop=1;jettySize=auto;html=1;entryX=0.5;entryY=0;entryDx=0;entryDy=0;" edge="1" parent="1" source="jKuNHAU3vLXtjjAw8VPT-8" target="jKuNHAU3vLXtjjAw8VPT-29">
          <mxGeometry relative="1" as="geometry" />
        </mxCell>
        <mxCell id="jKuNHAU3vLXtjjAw8VPT-8" value="&lt;font style=&quot;font-size: 18px;&quot;&gt;支付选项node&lt;/font&gt;" style="rounded=0;whiteSpace=wrap;html=1;fontSize=18;fontStyle=1" vertex="1" parent="1">
          <mxGeometry x="1540" y="525" width="120" height="60" as="geometry" />
        </mxCell>
        <mxCell id="jKuNHAU3vLXtjjAw8VPT-10" value="&lt;font style=&quot;font-size: 18px;&quot;&gt;渲染node&lt;/font&gt;" style="rounded=0;whiteSpace=wrap;html=1;fontSize=18;fontStyle=1" vertex="1" parent="1">
          <mxGeometry x="2680" y="524" width="120" height="60" as="geometry" />
        </mxCell>
        <mxCell id="jKuNHAU3vLXtjjAw8VPT-11" value="&lt;font style=&quot;font-size: 18px;&quot;&gt;us平台层DTO&lt;/font&gt;" style="rounded=0;whiteSpace=wrap;html=1;fontSize=18;fontStyle=1" vertex="1" parent="1">
          <mxGeometry x="-210" y="380" width="120" height="60" as="geometry" />
        </mxCell>
        <mxCell id="jKuNHAU3vLXtjjAw8VPT-87" style="rounded=0;orthogonalLoop=1;jettySize=auto;html=1;entryX=0.5;entryY=0;entryDx=0;entryDy=0;" edge="1" parent="1" source="jKuNHAU3vLXtjjAw8VPT-16" target="jKuNHAU3vLXtjjAw8VPT-46">
          <mxGeometry relative="1" as="geometry" />
        </mxCell>
        <mxCell id="jKuNHAU3vLXtjjAw8VPT-16" value="&lt;font style=&quot;font-size: 18px;&quot;&gt;用户信息&lt;/font&gt;" style="rounded=0;whiteSpace=wrap;html=1;fontSize=18;fontStyle=1" vertex="1" parent="1">
          <mxGeometry x="763" y="777" width="120" height="58" as="geometry" />
        </mxCell>
        <mxCell id="jKuNHAU3vLXtjjAw8VPT-83" style="rounded=0;orthogonalLoop=1;jettySize=auto;html=1;entryX=0.5;entryY=0;entryDx=0;entryDy=0;" edge="1" parent="1" source="jKuNHAU3vLXtjjAw8VPT-17" target="jKuNHAU3vLXtjjAw8VPT-45">
          <mxGeometry relative="1" as="geometry" />
        </mxCell>
        <mxCell id="jKuNHAU3vLXtjjAw8VPT-17" value="&lt;font style=&quot;font-size: 18px;&quot;&gt;商品详情&lt;/font&gt;" style="rounded=0;whiteSpace=wrap;html=1;fontSize=18;fontStyle=1" vertex="1" parent="1">
          <mxGeometry x="-19" y="776" width="120" height="60" as="geometry" />
        </mxCell>
        <mxCell id="jKuNHAU3vLXtjjAw8VPT-85" style="rounded=0;orthogonalLoop=1;jettySize=auto;html=1;entryX=0.5;entryY=0;entryDx=0;entryDy=0;" edge="1" parent="1" source="jKuNHAU3vLXtjjAw8VPT-18" target="jKuNHAU3vLXtjjAw8VPT-45">
          <mxGeometry relative="1" as="geometry" />
        </mxCell>
        <mxCell id="jKuNHAU3vLXtjjAw8VPT-18" value="&lt;font style=&quot;font-size: 18px;&quot;&gt;搭售商品&lt;/font&gt;" style="rounded=0;whiteSpace=wrap;html=1;fontSize=18;fontStyle=1" vertex="1" parent="1">
          <mxGeometry x="171" y="776" width="120" height="60" as="geometry" />
        </mxCell>
        <mxCell id="jKuNHAU3vLXtjjAw8VPT-88" style="rounded=0;orthogonalLoop=1;jettySize=auto;html=1;entryX=0.5;entryY=0;entryDx=0;entryDy=0;" edge="1" parent="1" source="jKuNHAU3vLXtjjAw8VPT-19" target="jKuNHAU3vLXtjjAw8VPT-46">
          <mxGeometry relative="1" as="geometry" />
        </mxCell>
        <mxCell id="jKuNHAU3vLXtjjAw8VPT-19" value="&lt;font style=&quot;font-size: 18px;&quot;&gt;订单算价&lt;/font&gt;" style="rounded=0;whiteSpace=wrap;html=1;fontSize=18;fontStyle=1" vertex="1" parent="1">
          <mxGeometry x="971" y="777" width="120" height="60" as="geometry" />
        </mxCell>
        <mxCell id="jKuNHAU3vLXtjjAw8VPT-86" style="rounded=0;orthogonalLoop=1;jettySize=auto;html=1;entryX=0.5;entryY=0;entryDx=0;entryDy=0;" edge="1" parent="1" source="jKuNHAU3vLXtjjAw8VPT-20" target="jKuNHAU3vLXtjjAw8VPT-45">
          <mxGeometry relative="1" as="geometry" />
        </mxCell>
        <mxCell id="jKuNHAU3vLXtjjAw8VPT-20" value="&lt;font style=&quot;font-size: 18px;&quot;&gt;价格日历&lt;/font&gt;" style="rounded=0;whiteSpace=wrap;html=1;fontSize=18;fontStyle=1" vertex="1" parent="1">
          <mxGeometry x="361" y="776" width="120" height="60" as="geometry" />
        </mxCell>
        <mxCell id="jKuNHAU3vLXtjjAw8VPT-89" style="rounded=0;orthogonalLoop=1;jettySize=auto;html=1;entryX=0.5;entryY=0;entryDx=0;entryDy=0;" edge="1" parent="1" source="jKuNHAU3vLXtjjAw8VPT-21" target="jKuNHAU3vLXtjjAw8VPT-46">
          <mxGeometry relative="1" as="geometry" />
        </mxCell>
        <mxCell id="jKuNHAU3vLXtjjAw8VPT-21" value="&lt;font style=&quot;font-size: 18px;&quot;&gt;获取合同&lt;/font&gt;" style="rounded=0;whiteSpace=wrap;html=1;fontSize=18;fontStyle=1" vertex="1" parent="1">
          <mxGeometry x="1161" y="777" width="120" height="60" as="geometry" />
        </mxCell>
        <mxCell id="jKuNHAU3vLXtjjAw8VPT-90" style="rounded=0;orthogonalLoop=1;jettySize=auto;html=1;entryX=0.5;entryY=0;entryDx=0;entryDy=0;" edge="1" parent="1" source="jKuNHAU3vLXtjjAw8VPT-22" target="jKuNHAU3vLXtjjAw8VPT-46">
          <mxGeometry relative="1" as="geometry" />
        </mxCell>
        <mxCell id="jKuNHAU3vLXtjjAw8VPT-22" value="&lt;font style=&quot;font-size: 18px;&quot;&gt;订单信息&lt;/font&gt;" style="rounded=0;whiteSpace=wrap;html=1;fontSize=18;fontStyle=1" vertex="1" parent="1">
          <mxGeometry x="1351" y="777" width="120" height="60" as="geometry" />
        </mxCell>
        <mxCell id="jKuNHAU3vLXtjjAw8VPT-93" style="edgeStyle=orthogonalEdgeStyle;rounded=0;orthogonalLoop=1;jettySize=auto;html=1;entryX=0.5;entryY=0;entryDx=0;entryDy=0;" edge="1" parent="1" source="jKuNHAU3vLXtjjAw8VPT-23" target="jKuNHAU3vLXtjjAw8VPT-47">
          <mxGeometry relative="1" as="geometry" />
        </mxCell>
        <mxCell id="jKuNHAU3vLXtjjAw8VPT-23" value="&lt;font style=&quot;font-size: 18px;&quot;&gt;poi信息&lt;/font&gt;" style="rounded=0;whiteSpace=wrap;html=1;fontSize=18;fontStyle=1" vertex="1" parent="1">
          <mxGeometry x="1921" y="777" width="120" height="60" as="geometry" />
        </mxCell>
        <mxCell id="jKuNHAU3vLXtjjAw8VPT-92" style="rounded=0;orthogonalLoop=1;jettySize=auto;html=1;entryX=0.5;entryY=0;entryDx=0;entryDy=0;" edge="1" parent="1" source="jKuNHAU3vLXtjjAw8VPT-24" target="jKuNHAU3vLXtjjAw8VPT-46">
          <mxGeometry relative="1" as="geometry" />
        </mxCell>
        <mxCell id="jKuNHAU3vLXtjjAw8VPT-24" value="&lt;font style=&quot;font-size: 18px;&quot;&gt;营销投放&lt;/font&gt;" style="rounded=0;whiteSpace=wrap;html=1;fontSize=18;fontStyle=1" vertex="1" parent="1">
          <mxGeometry x="1731" y="777" width="120" height="60" as="geometry" />
        </mxCell>
        <mxCell id="jKuNHAU3vLXtjjAw8VPT-84" style="rounded=0;orthogonalLoop=1;jettySize=auto;html=1;entryX=0.5;entryY=0;entryDx=0;entryDy=0;" edge="1" parent="1" source="jKuNHAU3vLXtjjAw8VPT-25" target="jKuNHAU3vLXtjjAw8VPT-45">
          <mxGeometry relative="1" as="geometry" />
        </mxCell>
        <mxCell id="jKuNHAU3vLXtjjAw8VPT-25" value="&lt;font style=&quot;font-size: 18px;&quot;&gt;商品推荐&lt;/font&gt;" style="rounded=0;whiteSpace=wrap;html=1;fontSize=18;fontStyle=1" vertex="1" parent="1">
          <mxGeometry x="551" y="776" width="120" height="60" as="geometry" />
        </mxCell>
        <mxCell id="jKuNHAU3vLXtjjAw8VPT-26" value="&lt;font style=&quot;font-size: 18px;&quot;&gt;通用物料&lt;/font&gt;" style="rounded=0;whiteSpace=wrap;html=1;fontSize=18;fontStyle=1" vertex="1" parent="1">
          <mxGeometry x="2111" y="777" width="120" height="60" as="geometry" />
        </mxCell>
        <mxCell id="jKuNHAU3vLXtjjAw8VPT-27" value="&lt;font style=&quot;font-size: 18px;&quot;&gt;物料素材&lt;/font&gt;" style="rounded=0;whiteSpace=wrap;html=1;fontSize=18;fontStyle=1" vertex="1" parent="1">
          <mxGeometry x="2301" y="777" width="120" height="60" as="geometry" />
        </mxCell>
        <mxCell id="jKuNHAU3vLXtjjAw8VPT-28" value="&lt;font style=&quot;font-size: 18px;&quot;&gt;meta信息&lt;/font&gt;" style="rounded=0;whiteSpace=wrap;html=1;fontSize=18;fontStyle=1" vertex="1" parent="1">
          <mxGeometry x="2491" y="777" width="120" height="60" as="geometry" />
        </mxCell>
        <mxCell id="jKuNHAU3vLXtjjAw8VPT-91" style="rounded=0;orthogonalLoop=1;jettySize=auto;html=1;entryX=0.5;entryY=0;entryDx=0;entryDy=0;" edge="1" parent="1" source="jKuNHAU3vLXtjjAw8VPT-29" target="jKuNHAU3vLXtjjAw8VPT-46">
          <mxGeometry relative="1" as="geometry" />
        </mxCell>
        <mxCell id="jKuNHAU3vLXtjjAw8VPT-29" value="&lt;font style=&quot;font-size: 18px;&quot;&gt;支付选项&lt;/font&gt;" style="rounded=0;whiteSpace=wrap;html=1;fontSize=18;fontStyle=1" vertex="1" parent="1">
          <mxGeometry x="1541" y="777" width="120" height="60" as="geometry" />
        </mxCell>
        <mxCell id="jKuNHAU3vLXtjjAw8VPT-32" value="用户域" style="text;strokeColor=none;align=center;fillColor=none;html=1;verticalAlign=middle;whiteSpace=wrap;rounded=0;fontSize=19;fontStyle=1" vertex="1" parent="1">
          <mxGeometry x="752" y="725" width="60" height="30" as="geometry" />
        </mxCell>
        <mxCell id="jKuNHAU3vLXtjjAw8VPT-45" value="商服" style="rounded=0;whiteSpace=wrap;html=1;fontSize=25;" vertex="1" parent="1">
          <mxGeometry x="-5" y="950" width="670" height="90" as="geometry" />
        </mxCell>
        <mxCell id="jKuNHAU3vLXtjjAw8VPT-46" value="AOS" style="rounded=0;whiteSpace=wrap;html=1;fontSize=25;" vertex="1" parent="1">
          <mxGeometry x="790" y="950" width="1030" height="90" as="geometry" />
        </mxCell>
        <mxCell id="jKuNHAU3vLXtjjAw8VPT-47" value="poi-biref" style="rounded=0;whiteSpace=wrap;html=1;fontSize=25;" vertex="1" parent="1">
          <mxGeometry x="1922" y="950" width="120" height="85" as="geometry" />
        </mxCell>
        <mxCell id="jKuNHAU3vLXtjjAw8VPT-48" value="us领域层DO" style="rounded=0;whiteSpace=wrap;html=1;fontSize=18;fontStyle=1" vertex="1" parent="1">
          <mxGeometry x="-210" y="775" width="120" height="60" as="geometry" />
        </mxCell>
        <mxCell id="jKuNHAU3vLXtjjAw8VPT-49" value="仓储层PO" style="rounded=0;whiteSpace=wrap;html=1;fontSize=18;fontStyle=1" vertex="1" parent="1">
          <mxGeometry x="-210" y="980" width="120" height="60" as="geometry" />
        </mxCell>
      </root>
    </mxGraphModel>
  </diagram>
</mxfile>
